<?xml version="1.0" encoding="utf-8"?>
<svg version="1.1" xmlns:xlink="http://www.w3.org/1999/xlink" width="24px" height="14px" xmlns="http://www.w3.org/2000/svg">
  <defs>
    <mask fill="white" id="clip3">
      <path d="M 2.92251538702651 0.521240557852975  C 2.92251538702651 0.521240557852975  12.0044649776198 9.77964180156928  12.0044649776198 9.77964180156928  C 12.0044649776198 9.77964180156928  21.0792688595109 0.51395027959886  21.0792688595109 0.51395027959886  C 21.7509480324062 -0.171317089459774  22.8370647416101 -0.171317089459774  23.5015991749758 0.51395027959886  C 24.1661336083414 1.19921764865749  24.1661316699965 2.30731027987006  23.5015991749758 2.9925776489287  C 23.5015991749758 2.9925776489287  13.219202505117 13.4902935660904  13.219202505117 13.4902935660904  C 12.5689614275006 14.1536901003866  11.5257150938195 14.1682706568949  10.8540378592692 13.5413245250888  C 10.8540378592692 13.5413245250888  0.500186040734158 2.99986792718281  0.500186040734158 2.99986792718281  C 0.164346938872757 2.65723374826328  0 2.20524935065376  0 1.76055424251789  C 0 1.31585913438204  0.164346938872757 0.863874736772519  0.500186040734158 0.521240557852975  C 1.17186424445696 -0.164026811205647  2.25798289200584 -0.164026811205647  2.92251538702651 0.521240557852975  Z " fill-rule="evenodd" />
    </mask>
  </defs>
  <g transform="matrix(1 0 0 1 -519 -1160 )">
    <path d="M 2.92251538702651 0.521240557852975  C 2.92251538702651 0.521240557852975  12.0044649776198 9.77964180156928  12.0044649776198 9.77964180156928  C 12.0044649776198 9.77964180156928  21.0792688595109 0.51395027959886  21.0792688595109 0.51395027959886  C 21.7509480324062 -0.171317089459774  22.8370647416101 -0.171317089459774  23.5015991749758 0.51395027959886  C 24.1661336083414 1.19921764865749  24.1661316699965 2.30731027987006  23.5015991749758 2.9925776489287  C 23.5015991749758 2.9925776489287  13.219202505117 13.4902935660904  13.219202505117 13.4902935660904  C 12.5689614275006 14.1536901003866  11.5257150938195 14.1682706568949  10.8540378592692 13.5413245250888  C 10.8540378592692 13.5413245250888  0.500186040734158 2.99986792718281  0.500186040734158 2.99986792718281  C 0.164346938872757 2.65723374826328  0 2.20524935065376  0 1.76055424251789  C 0 1.31585913438204  0.164346938872757 0.863874736772519  0.500186040734158 0.521240557852975  C 1.17186424445696 -0.164026811205647  2.25798289200584 -0.164026811205647  2.92251538702651 0.521240557852975  Z " fill-rule="nonzero" fill="#92c0d3" stroke="none" transform="matrix(1 0 0 1 519 1160 )" />
    <path d="M 2.92251538702651 0.521240557852975  C 2.92251538702651 0.521240557852975  12.0044649776198 9.77964180156928  12.0044649776198 9.77964180156928  C 12.0044649776198 9.77964180156928  21.0792688595109 0.51395027959886  21.0792688595109 0.51395027959886  C 21.7509480324062 -0.171317089459774  22.8370647416101 -0.171317089459774  23.5015991749758 0.51395027959886  C 24.1661336083414 1.19921764865749  24.1661316699965 2.30731027987006  23.5015991749758 2.9925776489287  C 23.5015991749758 2.9925776489287  13.219202505117 13.4902935660904  13.219202505117 13.4902935660904  C 12.5689614275006 14.1536901003866  11.5257150938195 14.1682706568949  10.8540378592692 13.5413245250888  C 10.8540378592692 13.5413245250888  0.500186040734158 2.99986792718281  0.500186040734158 2.99986792718281  C 0.164346938872757 2.65723374826328  0 2.20524935065376  0 1.76055424251789  C 0 1.31585913438204  0.164346938872757 0.863874736772519  0.500186040734158 0.521240557852975  C 1.17186424445696 -0.164026811205647  2.25798289200584 -0.164026811205647  2.92251538702651 0.521240557852975  Z " stroke-width="2" stroke="#92c0d3" fill="none" transform="matrix(1 0 0 1 519 1160 )" mask="url(#clip3)" />
  </g>
</svg>